<?xml version="1.0" encoding="UTF-8"?>
<svg version="1.1" xmlns="http://www.w3.org/2000/svg" width="2083" height="2083">
<path d="M0 0 C0.72574219 0.43699219 1.45148438 0.87398437 2.19921875 1.32421875 C3.05902344 1.83339844 3.91882812 2.34257813 4.8046875 2.8671875 C23.01935509 14.62466126 29.18766265 39.66409373 36.83984375 58.91796875 C40.27965691 67.5372707 43.9446368 76.0501518 47.68334961 84.54272461 C49.58379229 88.87407459 51.37955603 93.23266561 53.10546875 97.63671875 C54.85899078 101.94537288 56.75781265 106.18990647 58.63500977 110.44580078 C60.20118336 114.00753533 61.72499714 117.57266279 63.13671875 121.19921875 C65.04505382 126.04027655 67.11060652 130.80884109 69.19921875 135.57421875 C69.53171631 136.34362793 69.86421387 137.11303711 70.20678711 137.90576172 C72.17834478 142.36880569 74.40762112 146.30034686 77.19921875 150.32421875 C77.85480582 151.57954658 78.48501904 152.84889653 79.07421875 154.13671875 C80.97758944 158.0633575 83.30444247 161.57914044 85.765625 165.17578125 C87.33373304 167.52580692 88.69687632 169.96554827 90.0625 172.4375 C92.04445822 175.727142 94.3468298 178.7967177 96.61328125 181.89453125 C98.18803305 184.30708204 99.22712439 186.61967899 100.19921875 189.32421875 C100.85921875 189.32421875 101.51921875 189.32421875 102.19921875 189.32421875 C103.49609375 190.79296875 103.49609375 190.79296875 104.94921875 192.82421875 C105.47773437 193.55253906 106.00625 194.28085937 106.55078125 195.03125 C107.09476563 195.78792969 107.63875 196.54460937 108.19921875 197.32421875 C114.04610119 205.35589064 114.04610119 205.35589064 120.63671875 212.76171875 C123.35362551 215.47862551 125.74039922 218.37363532 128.19921875 221.32421875 C131.6932468 225.00711318 135.45071343 228.31146696 139.28515625 231.62890625 C141.69241766 233.76105207 143.92581193 236.05081193 146.19921875 238.32421875 C147.18921875 239.14921875 148.17921875 239.97421875 149.19921875 240.82421875 C152.19921875 243.32421875 152.19921875 243.32421875 154.484375 245.65625 C157.37817502 248.50008512 160.43690971 251.02823111 163.63671875 253.51171875 C164.25377686 253.99092773 164.87083496 254.47013672 165.5065918 254.96386719 C167.398775 256.42446605 169.29774618 257.8757411 171.19921875 259.32421875 C172.23820312 260.11957031 173.2771875 260.91492188 174.34765625 261.734375 C192.47368491 275.13868509 213.25929694 288.40637205 234.49853516 296.25244141 C237.66938944 297.51080791 240.72268077 298.95112924 243.8046875 300.4140625 C252.06989524 304.30541689 260.42598898 307.97713131 268.79812622 311.63140869 C273.29074517 313.59311272 277.77991009 315.56269723 282.26953125 317.53125 C283.18080276 317.9306781 284.09207428 318.3301062 285.03096008 318.74163818 C293.52087144 322.46349342 302.00820873 326.19103746 310.48501587 329.94265747 C311.97199512 330.6000712 313.45957975 331.25611782 314.94784546 331.91061401 C322.64701167 335.29744226 330.29474664 338.77767371 337.8515625 342.47265625 C338.82592003 342.93945297 338.82592003 342.93945297 339.81996155 343.41567993 C345.56680845 346.27047537 350.44094437 349.88172614 354.32421875 355.07421875 C354.78054688 355.6671875 355.236875 356.26015625 355.70703125 356.87109375 C360.87415981 365.3657449 361.85138519 372.31929257 361.76171875 382.26171875 C361.78556641 383.47279297 361.80941406 384.68386719 361.83398438 385.93164062 C361.8209766 393.94009135 360.49879938 399.56145126 356.19921875 406.32421875 C355.49998291 407.43627686 355.49998291 407.43627686 354.78662109 408.57080078 C348.69960779 417.83770154 338.98738766 421.98891835 329.19921875 426.32421875 C327.0426221 427.29349993 324.88638534 428.26358215 322.73046875 429.234375 C320.38691041 430.28558365 318.04315234 431.33634709 315.69921875 432.38671875 C315.0805896 432.66401825 314.46196045 432.94131775 313.82458496 433.22702026 C301.21459848 438.87872456 288.58931822 444.49572175 275.95800781 450.09960938 C273.53761582 451.17400639 271.11830736 452.25079809 268.69921875 453.328125 C264.19979959 455.32848753 259.68983112 457.30458488 255.18017578 459.28173828 C242.23916541 464.94184345 242.23916541 464.94184345 229.3984375 470.82421875 C226.90917443 471.99134576 224.41248283 473.13208759 221.90625 474.26171875 C206.12636006 481.45363449 191.20271568 490.07775758 177.19921875 500.32421875 C176.12800781 501.06929687 175.05679688 501.814375 173.953125 502.58203125 C165.6197274 508.3851525 157.84297422 514.64361746 150.19921875 521.32421875 C149.40257812 522.0203125 148.6059375 522.71640625 147.78515625 523.43359375 C146.46684096 524.58897119 145.15020891 525.74627461 143.8359375 526.90625 C142.42753855 528.12641424 140.97342588 529.29345033 139.51171875 530.44921875 C136.88199136 532.58143015 134.56288704 534.90145875 132.19921875 537.32421875 C131.08546875 538.40703125 131.08546875 538.40703125 129.94921875 539.51171875 C125.89362101 543.65948916 122.04391061 547.98169205 118.19921875 552.32421875 C117.42336426 553.19675293 117.42336426 553.19675293 116.63183594 554.08691406 C110.66332628 560.81422189 104.79397865 567.47994967 99.78515625 574.96875 C98.10481177 577.46443404 96.31739903 579.8553734 94.51171875 582.26171875 C86.18222383 593.67621179 78.76335496 605.81912381 72.19921875 618.32421875 C71.30660854 619.90937137 70.41087134 621.49276802 69.51171875 623.07421875 C67.47475479 626.73428733 65.80221549 630.45030996 64.19921875 634.32421875 C63.47552983 635.93086403 62.74565866 637.53473032 62.01171875 639.13671875 C59.66956805 644.2695171 57.36632966 649.41893926 55.07421875 654.57421875 C54.73753174 655.33065674 54.40084473 656.08709473 54.05395508 656.86645508 C52.58376494 660.17647277 51.12807554 663.49046725 49.703125 666.8203125 C48.26457797 670.17194026 46.78579695 673.50239997 45.29467773 676.83081055 C41.57147995 685.11019142 41.57147995 685.11019142 38.13671875 693.51171875 C36.24599235 698.37718801 34.00263274 703.06879196 31.77197266 707.78442383 C29.71445046 712.1565197 27.8476786 716.56522842 26.0859375 721.0625 C23.19148538 728.44526554 19.81419239 734.85818426 15.19921875 741.32421875 C14.62171875 742.19046875 14.04421875 743.05671875 13.44921875 743.94921875 C5.85294193 751.96751094 -3.25169812 756.59818756 -14.26171875 756.94433594 C-27.61213657 756.96880518 -36.47950799 754.19597309 -46.80078125 745.32421875 C-58.74387521 732.41276582 -65.05726367 712.16462034 -71.62109375 696.1171875 C-72.96242252 692.94152501 -74.4048936 689.82278035 -75.86328125 686.69921875 C-77.99191492 682.1324307 -79.96931595 677.5467089 -81.8046875 672.85546875 C-99.84677669 627.00733623 -123.52941913 581.36654605 -158.80078125 546.32421875 C-160.20616413 544.74935555 -161.6020244 543.16594331 -162.98828125 541.57421875 C-166.83654755 537.27433773 -170.88838515 533.3899011 -175.2265625 529.58984375 C-176.93564824 528.08564082 -178.62117164 526.55421454 -180.28125 524.99609375 C-185.78577783 519.83299654 -191.50297466 515.10429179 -197.48828125 510.51171875 C-198.18896729 509.97256836 -198.88965332 509.43341797 -199.61157227 508.87792969 C-203.71574195 505.767584 -207.88066606 502.9697505 -212.34301758 500.39575195 C-212.82407959 500.042146 -213.3051416 499.68854004 -213.80078125 499.32421875 C-213.80078125 498.66421875 -213.80078125 498.00421875 -213.80078125 497.32421875 C-214.43757812 497.10765625 -215.074375 496.89109375 -215.73046875 496.66796875 C-220.04369719 494.78024536 -223.92223449 492.29045275 -227.92578125 489.82421875 C-246.85274184 478.36305463 -266.56941674 469.1957759 -286.80078125 460.32421875 C-288.31252366 459.65890792 -289.82424673 458.99355316 -291.3359375 458.328125 C-293.80144636 457.24550667 -296.26907541 456.16790786 -298.73828125 455.09375 C-307.16138871 451.42884744 -315.56605607 447.72176815 -323.97021484 444.01367188 C-326.70944915 442.80510419 -329.44951281 441.5984352 -332.18994141 440.39257812 C-336.13081866 438.65806149 -340.06965354 436.91896682 -344.00744629 435.17745972 C-345.54957246 434.49619218 -347.09227585 433.81622938 -348.63562012 433.13772583 C-356.65997668 429.60867619 -364.64058732 426.00094963 -372.515625 422.1484375 C-373.16124893 421.83896683 -373.80687286 421.52949615 -374.47206116 421.21064758 C-383.32822561 416.80692248 -388.00467478 410.82482391 -392.80078125 402.32421875 C-393.24035156 401.586875 -393.67992187 400.84953125 -394.1328125 400.08984375 C-398.69547601 390.9967617 -398.74969407 377.75882182 -395.625 368.1640625 C-394.20513475 364.73363871 -392.63973164 361.54680249 -390.80078125 358.32421875 C-390.42953125 357.62167969 -390.05828125 356.91914062 -389.67578125 356.1953125 C-383.69305223 346.3634012 -371.40161903 341.38648894 -361.30078125 337.07421875 C-360.02643878 336.51841653 -358.75268687 335.96125852 -357.47949219 335.40283203 C-354.8685331 334.25941878 -352.25483092 333.12267385 -349.63867188 331.99121094 C-344.87549756 329.92772786 -340.13653316 327.81066185 -335.39697266 325.69360352 C-325.58623184 321.31219796 -315.75748008 316.97086248 -305.92578125 312.63671875 C-304.89815674 312.18369385 -303.87053223 311.73066895 -302.81176758 311.26391602 C-297.0264269 308.72069114 -291.2237337 306.22420979 -285.40258789 303.76416016 C-276.31989945 299.92068401 -267.46295966 295.80537014 -258.69824219 291.28613281 C-256.81042753 290.32910891 -254.90812614 289.4114608 -252.99609375 288.50390625 C-238.49861575 281.57120604 -224.81866921 273.07588753 -211.82763672 263.62915039 C-209.80078125 262.32421875 -209.80078125 262.32421875 -207.80078125 262.32421875 C-207.80078125 261.66421875 -207.80078125 261.00421875 -207.80078125 260.32421875 C-205.62378252 258.63928138 -203.44566406 257.0622725 -201.17578125 255.51171875 C-195.63141416 251.68622121 -190.26712571 247.85907278 -185.55078125 243.01171875 C-183.80078125 241.32421875 -183.80078125 241.32421875 -181.80078125 241.32421875 C-181.47078125 240.33421875 -181.14078125 239.34421875 -180.80078125 238.32421875 C-179.375 236.921875 -179.375 236.921875 -177.48828125 235.38671875 C-168.91083551 228.10514611 -161.01759419 219.94919031 -153.80078125 211.32421875 C-152.66576172 209.98810547 -152.66576172 209.98810547 -151.5078125 208.625 C-142.24789374 197.64230566 -133.58441211 186.4140337 -125.80078125 174.32421875 C-125.19363281 173.38578125 -124.58648438 172.44734375 -123.9609375 171.48046875 C-122.22288862 168.77261142 -120.50721859 166.05208651 -118.80078125 163.32421875 C-118.30964844 162.54949219 -117.81851562 161.77476562 -117.3125 160.9765625 C-113.70008289 155.14411547 -110.61178031 149.10392952 -107.60375977 142.94458008 C-105.81620992 139.29262068 -103.89408045 135.81305075 -101.80078125 132.32421875 C-101.07998958 130.42394981 -100.3622879 128.52229719 -99.67578125 126.609375 C-98.69984345 124.06060887 -97.57811967 121.61064531 -96.42578125 119.13671875 C-94.07229007 114.03513908 -92.04457552 108.84996257 -90.0546875 103.59765625 C-87.5849105 97.15007642 -85.09770645 90.68220353 -81.86328125 84.57421875 C-79.46689546 79.95608257 -77.80153106 75.06191291 -76.01855469 70.18432617 C-74.71330152 66.64712325 -73.36954769 63.23102687 -71.61328125 59.88671875 C-69.90750938 56.53399473 -68.77031561 53.35440746 -67.63671875 49.7890625 C-66.34162441 45.97034976 -64.76343499 42.28258861 -63.18359375 38.57421875 C-62.22096092 36.31175967 -61.27980831 34.04009085 -60.35546875 31.76171875 C-54.29199893 17.03161406 -46.65198912 6.0185132 -31.80078125 -0.67578125 C-30.72376953 -1.2171875 -30.72376953 -1.2171875 -29.625 -1.76953125 C-20.87026887 -4.57879491 -8.21810043 -4.08753686 0 0 Z " fill="#30BFE6" transform="translate(1026.80078125,645.67578125)"/>
<path d="M0 0 C12.04389178 9.47157543 19.2729383 20.9271483 24.83984375 35.07373047 C27.13726177 40.86852265 29.55015122 46.61679509 31.9375 52.375 C32.45513012 53.62497847 32.97270846 54.87497838 33.49023438 56.125 C35.85229876 61.82848255 38.21980335 67.5296424 40.59765625 73.2265625 C42.92453021 78.80715165 45.2164215 84.40158175 47.5 90 C52.0467685 101.12324434 56.64110023 112.21215893 61.48046875 123.21142578 C63.42441313 127.64391737 65.28017123 132.10049895 67.05078125 136.60546875 C68.51406497 140.29679765 70.05800571 143.95389285 71.58984375 147.6171875 C73.1957339 151.46954447 74.78645221 155.32796921 76.375 159.1875 C76.82045166 160.26644531 76.82045166 160.26644531 77.27490234 161.3671875 C78.77573456 165.00595963 80.26325011 168.64908766 81.72265625 172.3046875 C84.82418471 180.03240449 88.14645998 187.55324311 91.94458008 194.96533203 C94.09982899 199.1718873 96.13490705 203.41545665 98.10424805 207.7121582 C100.88124985 213.7663011 103.68788026 219.40315998 107.57421875 224.83984375 C109.27747719 227.42039695 110.59060452 230.0923637 111.9375 232.875 C114.86778714 238.89582437 118.33175608 244.40796594 122 250 C123.02122026 251.64559328 124.04204171 253.29143411 125.0625 254.9375 C133.14541675 267.62622291 141.91126167 279.91472923 151.3046875 291.6640625 C153 294 153 294 153 296 C153.66 296 154.32 296 155 296 C158 299.46153846 158 299.46153846 158 302 C158.66 302 159.32 302 160 302 C161 303.66666667 162 305.33333333 163 307 C164.64302953 308.68997323 166.31471312 310.35216394 168 312 C170.06486736 314.28711336 172.10096512 316.59759837 174.1328125 318.9140625 C175.92768687 320.97715969 175.92768687 320.97715969 177.7421875 322.6484375 C179 324 179 324 179 326 C179.66 326 180.32 326 181 326 C182.41674805 327.43579102 182.41674805 327.43579102 184.07421875 329.44140625 C188.09943594 334.17382667 192.40985372 338.55776428 196.8125 342.9375 C197.57498047 343.70384766 198.33746094 344.47019531 199.12304688 345.25976562 C199.85201172 345.98744141 200.58097656 346.71511719 201.33203125 347.46484375 C201.98921143 348.120896 202.6463916 348.77694824 203.32348633 349.45288086 C204.93380588 351.08270479 204.93380588 351.08270479 207 352 C207 352.66 207 353.32 207 354 C207.66 354 208.32 354 209 354 C209 354.66 209 355.32 209 356 C209.54011719 356.22042969 210.08023438 356.44085937 210.63671875 356.66796875 C213.78251698 358.44105502 216.21935075 360.83591976 218.8125 363.3125 C222.15995218 366.46108858 225.43724177 369.47387887 229.25 372.0625 C230.1575 372.701875 231.065 373.34125 232 374 C232 374.66 232 375.32 232 376 C233.65 376.66 235.3 377.32 237 378 C237 378.66 237 379.32 237 380 C238.65 380.66 240.3 381.32 242 382 C242 382.66 242 383.32 242 384 C242.86020752 384.40859253 242.86020752 384.40859253 243.73779297 384.82543945 C246.02125752 386.01103712 248.07655233 387.33479145 250.1953125 388.79296875 C250.98832764 389.33719482 251.78134277 389.8814209 252.59838867 390.44213867 C253.43217041 391.01810791 254.26595215 391.59407715 255.125 392.1875 C255.98520752 392.77829346 256.84541504 393.36908691 257.73168945 393.9777832 C261.90696147 396.84924692 266.06251881 399.7441172 270.1875 402.6875 C283.53751201 412.0462713 297.78603785 420.0485966 312 428 C312.99483398 428.56050049 312.99483398 428.56050049 314.00976562 429.13232422 C325.97624399 435.84499159 338.49648138 441.37597882 351 447 C352.48834449 447.67181629 353.97662105 448.3437831 355.46484375 449.01586914 C367.82443659 454.59330469 380.21798764 460.09149071 392.625 465.5625 C396.26316953 467.16763191 399.90116665 468.77315418 403.5390625 470.37890625 C404.42908463 470.77175308 405.31910675 471.16459991 406.23609924 471.5693512 C417.51723739 476.5505564 428.78297177 481.56624121 440.04730225 486.58531189 C443.84136633 488.27558524 447.63585774 489.96489792 451.43041992 491.65405273 C453.34665914 492.50739196 455.2626761 493.36123046 457.1784668 494.21557617 C468.36757797 499.20475966 479.56920818 504.15274089 490.86360168 508.90000916 C514.44747171 518.89132303 514.44747171 518.89132303 522 527 C522 527.66 522 528.32 522 529 C522.66 529 523.32 529 524 529 C535.92127245 542.63965406 541.18992597 557.89392842 541.3125 575.8125 C541.31813965 576.58859619 541.3237793 577.36469238 541.32958984 578.16430664 C541.26053298 583.66017945 540.35837319 588.68511097 539 594 C538.80019531 594.87269531 538.60039063 595.74539063 538.39453125 596.64453125 C536.50098551 603.69767143 533.24090606 610.05251246 529 616 C528.34 616 527.68 616 527 616 C526.773125 616.556875 526.54625 617.11375 526.3125 617.6875 C518.04909831 632.24682679 497.93976135 638.97880832 483.26220703 644.94702148 C478.46201101 646.90890084 473.75529342 649.03273721 469.06640625 651.24609375 C459.52046122 655.74527219 449.81630167 659.86850901 440.11572266 664.02050781 C431.64703988 667.64870093 423.21680269 671.31990319 414.88476562 675.25340271 C406.78710837 679.0641314 398.59041109 682.65479455 390.40673828 686.27593994 C385.42559664 688.48065783 380.44717733 690.69150506 375.46875 692.90234375 C373.98930908 693.55928223 373.98930908 693.55928223 372.47998047 694.22949219 C359.29057 700.08876521 346.12523839 705.99823725 333 712 C332.02289062 712.44456543 331.04578125 712.88913086 330.0390625 713.34716797 C306.43546425 724.12829329 284.06250057 737.25311987 262.69335938 751.95385742 C258.21478622 755 258.21478622 755 256 755 C256 755.66 256 756.32 256 757 C254.70492018 757.91005609 253.39886315 758.80634977 252.05859375 759.6484375 C248.38412174 762.0608992 244.90848433 764.75703632 241.390625 767.390625 C239 769 239 769 237 769 C237 769.66 237 770.32 237 771 C235.4609375 772.33203125 235.4609375 772.33203125 233.375 773.8125 C230.69596143 775.74577783 228.11894196 777.70823359 225.625 779.875 C223 782 223 782 221 782 C221 782.66 221 783.32 221 784 C216.52941176 788 216.52941176 788 214 788 C214 788.66 214 789.32 214 790 C212.44406999 791.36933879 210.82702659 792.66944657 209.1875 793.9375 C203.7691414 798.24691993 198.9957243 802.90978047 194.21484375 807.91015625 C192 810 192 810 190 810 C189.73195557 810.59474121 189.46391113 811.18948242 189.18774414 811.80224609 C187.99020301 814.01812796 186.79681017 815.42079528 184.99609375 817.1640625 C184.42052734 817.72867188 183.84496094 818.29328125 183.25195312 818.875 C182.35379883 819.74125 182.35379883 819.74125 181.4375 820.625 C180.24650616 821.78160151 179.05759995 822.94035778 177.87109375 824.1015625 C177.34443115 824.61025879 176.81776855 825.11895508 176.27514648 825.64306641 C174.8835783 826.99400105 174.8835783 826.99400105 174 829 C173.34 829 172.68 829 172 829 C171.773125 829.53625 171.54625 830.0725 171.3125 830.625 C168.67003006 835.40661228 164.83412299 839.16587701 161 843 C160.67 843.66 160.34 844.32 160 845 C159.34 845 158.68 845 158 845 C157.773125 845.515625 157.54625 846.03125 157.3125 846.5625 C154.54591823 851.70043757 151.11125646 855.88874354 147 860 C142.86816363 865.24875709 139.02614991 870.72285234 135.1875 876.1875 C134.66687988 876.92798584 134.14625977 877.66847168 133.60986328 878.43139648 C132.56033467 879.92545218 131.51149189 881.41998992 130.46337891 882.91503906 C129.17110804 884.75621244 127.87353991 886.59348837 126.57421875 888.4296875 C118.87214481 899.40138076 111.6280782 910.66388028 105.3515625 922.515625 C104.02762154 924.94922745 102.59725844 927.27883415 101.125 929.625 C97.98155606 934.7845271 95.49275033 940.19471401 92.97021484 945.67456055 C90.66792626 950.65548398 88.18815098 955.47149405 85.421875 960.21484375 C83.74271619 963.50396527 82.41532166 966.87275113 81.06640625 970.30834961 C79.33510617 974.67821759 77.47948895 978.99378314 75.625 983.3125 C75.22998291 984.23401855 74.83496582 985.15553711 74.42797852 986.10498047 C71.89317765 991.9931601 69.25217028 997.82037007 66.53125 1003.625 C64.20626185 1008.74946367 62.05649917 1013.94544219 59.88818359 1019.13769531 C57.81579716 1024.09120436 55.66381647 1028.99316979 53.41015625 1033.8671875 C51.37682408 1038.38445177 49.44328606 1042.94341097 47.5 1047.5 C44.86314603 1053.68138083 42.19132612 1059.83546008 39.375 1065.9375 C37.35674595 1070.4327022 35.43349984 1074.96781984 33.5 1079.5 C30.76983318 1085.8968054 28.03111011 1092.28315157 25.10546875 1098.59375 C24.3155623 1100.31312233 23.54995864 1102.04374413 22.80078125 1103.78125 C15.1689306 1121.30802374 3.34062728 1134.0664557 -14.1640625 1141.95703125 C-29.1024347 1147.45089541 -49.39628461 1147.65321551 -64 1141 C-73.62229581 1135.87880034 -81.98726443 1130.00643347 -88.4375 1121.125 C-88.91195557 1120.47442627 -89.38641113 1119.82385254 -89.87524414 1119.15356445 C-96.14948989 1110.28094752 -100.13662005 1100.45422004 -104.05078125 1090.36328125 C-105.06128674 1087.84741368 -106.17287044 1085.39747707 -107.3125 1082.9375 C-109.50786283 1078.1752514 -111.52135284 1073.35484145 -113.5 1068.5 C-115.73996233 1063.01003646 -118.06224813 1057.58415304 -120.5546875 1052.203125 C-122.60295507 1047.6637212 -124.54683964 1043.08097653 -126.5 1038.5 C-129.92215964 1030.46572959 -129.92215964 1030.46572959 -133.5 1022.5 C-136.3685426 1016.28482436 -139.01745004 1009.97532815 -141.703125 1003.6796875 C-143.93900266 998.44773377 -146.22750142 993.24966476 -148.6171875 988.0859375 C-149.84183271 985.3529722 -151.02491026 982.60805139 -152.1953125 979.8515625 C-152.59427734 978.91248047 -152.99324219 977.97339844 -153.40429688 977.00585938 C-154.20316396 975.12053307 -154.99886495 973.23386128 -155.79101562 971.34570312 C-157.62404573 967.01975207 -159.53986384 963.00961419 -162 959 C-163.01350096 956.67249914 -164.01232447 954.33857681 -165 952 C-166.23083908 949.39637993 -167.51746711 946.82219677 -168.8125 944.25 C-169.16143311 943.55479248 -169.51036621 942.85958496 -169.86987305 942.14331055 C-173.66682137 934.6180073 -177.64365752 927.21707429 -182 920 C-182.9028525 918.48467801 -183.80513366 916.96901554 -184.70703125 915.453125 C-185.74212603 913.71871331 -186.7772841 911.9843394 -187.8125 910.25 C-188.32103516 909.3940625 -188.82957031 908.538125 -189.35351562 907.65625 C-192.38310494 902.58773555 -195.53045205 897.65042649 -198.9050293 892.80371094 C-200 891 -200 891 -200 889 C-200.66 889 -201.32 889 -202 889 C-203.2890625 887.3203125 -203.2890625 887.3203125 -204.625 885.125 C-205.07101562 884.40570312 -205.51703125 883.68640625 -205.9765625 882.9453125 C-207 881 -207 881 -207 879 C-207.66 879 -208.32 879 -209 879 C-210.04272497 877.3597249 -211.03344425 875.68628223 -212 874 C-216.8285401 867.26671035 -221.94606146 860.7567782 -227.15625 854.31640625 C-228.88721332 852.14170022 -230.54490671 849.92930462 -232.1875 847.6875 C-234.5607094 844.49572372 -237.14962345 841.78408872 -240 839 C-241.38375688 837.4871299 -242.75761436 835.96518307 -244.125 834.4375 C-244.91132812 833.5609375 -245.69765625 832.684375 -246.5078125 831.78125 C-248.14963882 829.94899242 -249.79029362 828.11568431 -251.4296875 826.28125 C-257.02567366 820.08994617 -262.79672134 814.09942702 -268.6875 808.1875 C-269.38810547 807.48230225 -270.08871094 806.77710449 -270.81054688 806.05053711 C-278.92482288 797.95425616 -278.92482288 797.95425616 -288 791 C-288 790.34 -288 789.68 -288 789 C-288.53753906 788.773125 -289.07507813 788.54625 -289.62890625 788.3125 C-292.73886281 786.59100839 -295.27598852 784.32787358 -297.9375 782 C-314.22704679 768.01131442 -331.75034941 755.30768308 -350 744 C-350.67998047 743.57509277 -351.35996094 743.15018555 -352.06054688 742.71240234 C-368.25729365 732.6021689 -384.81832352 723.32733937 -402 715 C-402.77118164 714.62407715 -403.54236328 714.2481543 -404.33691406 713.86083984 C-416.20034858 708.0897585 -428.19140634 702.66043346 -440.28125 697.3828125 C-449.3752532 693.40852484 -458.43956497 689.3675743 -467.5065918 685.33221436 C-486.48815064 676.8818695 -486.48815064 676.8818695 -505.5 668.5 C-517.2872333 663.32862216 -529.04973085 658.10172761 -540.8125 652.875 C-541.76318359 652.45275146 -542.71386719 652.03050293 -543.69335938 651.59545898 C-549.22169502 649.13974934 -554.74801527 646.67958122 -560.2723999 644.21499634 C-563.0467223 642.97918778 -565.82335987 641.74868082 -568.60009766 640.51831055 C-570.38843644 639.72204474 -572.17668866 638.92558448 -573.96484375 638.12890625 C-574.77661575 637.77073822 -575.58838776 637.41257019 -576.42475891 637.04354858 C-582.57686694 634.2937749 -588.777772 631.32390896 -594 627 C-594 626.34 -594 625.68 -594 625 C-594.66 625 -595.32 625 -596 625 C-596 624.34 -596 623.68 -596 623 C-596.66 623 -597.32 623 -598 623 C-611.34639243 609.14259705 -617.54456459 590.999205 -617.2109375 571.96875 C-616.19160712 552.79023772 -608.11673962 537.65428325 -594.55859375 524.66015625 C-583.54489279 515.2068808 -568.86393228 510.07508901 -555.68057251 504.35140991 C-551.11047057 502.36706257 -546.54557873 500.37079876 -541.98046875 498.375 C-541.09465622 497.98801437 -540.20884369 497.60102875 -539.29618835 497.20231628 C-532.94118987 494.42227847 -526.6140361 491.58687369 -520.3125 488.6875 C-511.97044078 484.85243102 -503.55697916 481.19398192 -495.125 477.5625 C-485.31670572 473.33792863 -475.56814467 469.00909541 -465.88232422 464.50927734 C-459.41642539 461.52265293 -452.91255906 458.63952754 -446.37890625 455.8046875 C-422.51828501 445.46626519 -422.51828501 445.46626519 -399.0625 434.25 C-397.96969727 433.70239014 -396.87689453 433.15478027 -395.75097656 432.59057617 C-390.11175936 429.71706984 -384.6327098 426.67206111 -379.24560547 423.34912109 C-376.89236175 421.93533279 -374.49483618 420.64711283 -372.0625 419.375 C-358.4032756 411.98431484 -345.46495101 403.2426249 -333 394 C-332.04746338 393.29641357 -332.04746338 393.29641357 -331.07568359 392.57861328 C-317.95486124 382.870037 -305.0096473 373.0713936 -293 362 C-291.54744882 360.6811037 -290.08947479 359.36814388 -288.625 358.0625 C-288.01914062 357.51722656 -287.41328125 356.97195313 -286.7890625 356.41015625 C-284.9475345 354.95864619 -283.12861194 353.97053452 -281 353 C-281 352.34 -281 351.68 -281 351 C-280.34 351 -279.68 351 -279 351 C-279 350.34 -279 349.68 -279 349 C-277.4609375 347.51953125 -277.4609375 347.51953125 -275.375 345.8125 C-272.02441066 342.97011292 -269.17653864 340.02150986 -266.37890625 336.64453125 C-264.37826729 334.25850008 -262.29651512 332.10513886 -260 330 C-259.34 330 -258.68 330 -258 330 C-258 329.34 -258 328.68 -258 328 C-257.34 328 -256.68 328 -256 328 C-255.6596875 327.1646875 -255.6596875 327.1646875 -255.3125 326.3125 C-253.6347628 323.35648683 -251.40838291 321.40499559 -249 319 C-247.03879073 316.80790184 -245.14218104 314.56424644 -243.25 312.3125 C-242.75628906 311.73177734 -242.26257813 311.15105469 -241.75390625 310.55273438 C-239.1060016 307.46207646 -239.1060016 307.46207646 -237 304 C-236.34 304 -235.68 304 -235 304 C-234.64615234 303.18208984 -234.64615234 303.18208984 -234.28515625 302.34765625 C-232.08639416 298.33107261 -228.94787718 295.03933677 -225.99609375 291.55859375 C-223.84684308 289.09755181 -223.84684308 289.09755181 -223 286 C-222.40445312 285.40703125 -221.80890625 284.8140625 -221.1953125 284.203125 C-217.74925641 280.74480537 -215.4092462 276.59269777 -212.8046875 272.484375 C-212.20914062 271.66453125 -211.61359375 270.8446875 -211 270 C-210.34 270 -209.68 270 -209 270 C-208.9278125 269.48050781 -208.855625 268.96101563 -208.78125 268.42578125 C-207.65794439 264.93791733 -205.57220508 262.16853318 -203.5 259.1875 C-198.73583711 252.19107481 -194.31197116 245.0440855 -190.02734375 237.74609375 C-189.05710287 236.09705317 -188.07576429 234.45455667 -187.09375 232.8125 C-183.67418443 227.05323167 -180.54918254 221.22049138 -177.6015625 215.20703125 C-175.77973989 211.55894256 -173.86774867 207.96649508 -171.9375 204.375 C-167.58038419 196.24089718 -163.37425053 188.18002455 -160.03125 179.56640625 C-158.93407984 176.83594869 -157.73260691 174.17190095 -156.5 171.5 C-153.52903213 165.02689121 -150.94164646 158.43295157 -148.37109375 151.79296875 C-143.91231016 140.27973512 -139.33772455 128.86801235 -134.18359375 117.64453125 C-132.69809937 114.32545635 -131.35352758 110.96187416 -130.0234375 107.578125 C-128.9238687 104.80821885 -127.77851438 102.06036227 -126.625 99.3125 C-124.72251259 94.76863862 -122.87893202 90.20377514 -121.0625 85.625 C-118.60551954 79.43816468 -116.01417308 73.32091309 -113.37109375 67.2109375 C-112.1819785 64.42617187 -111.04432139 61.63067173 -109.9375 58.8125 C-108.6256426 55.48446832 -107.20208499 52.24062179 -105.6875 49 C-103.7597915 44.84982634 -102.1011211 40.65229047 -100.50878906 36.36669922 C-97.47379865 28.23929671 -94.10829881 21.07761961 -89 14 C-88.53078125 13.28714844 -88.0615625 12.57429688 -87.578125 11.83984375 C-79.59605708 0.20306496 -65.91201247 -7.49084845 -52.28125 -10.63818359 C-33.34158306 -13.64209909 -15.80002258 -10.98004305 0 0 Z M-68 126 C-68.75152344 126.51433594 -69.50304687 127.02867187 -70.27734375 127.55859375 C-70.84582031 128.03425781 -71.41429687 128.50992188 -72 129 C-72 129.66 -72 130.32 -72 131 C-72.66 131 -73.32 131 -74 131 C-80.00603024 137.80284697 -83.46846405 145.95058576 -86.875 154.25 C-87.39097351 155.48330953 -87.90791531 156.71621437 -88.42578125 157.94873047 C-89.96634912 161.62605842 -91.48417736 165.31240232 -93 169 C-93.44762695 170.08249023 -93.89525391 171.16498047 -94.35644531 172.28027344 C-97.53603287 179.97015581 -100.67746864 187.67451113 -103.75390625 195.40625 C-106.73869448 202.87768917 -109.8073378 210.31517664 -112.86303711 217.7578125 C-113.93205702 220.36174193 -115.00025952 222.96600556 -116.06835938 225.5703125 C-117.75023523 229.66997359 -119.4348258 233.76850878 -121.12176514 237.86608887 C-121.8962233 239.7478462 -122.66917555 241.63022314 -123.44189453 243.51269531 C-125.76871111 249.1483378 -128.19964186 254.72187978 -130.74511719 260.26220703 C-132.01846442 263.04028405 -133.26514156 265.82917504 -134.5078125 268.62109375 C-140.40764989 281.78183789 -146.77388219 294.51778979 -154 307 C-154.63929443 308.10553223 -154.63929443 308.10553223 -155.29150391 309.23339844 C-156.49762289 311.30704387 -157.71359482 313.37430889 -158.9375 315.4375 C-159.29086426 316.0344165 -159.64422852 316.63133301 -160.00830078 317.24633789 C-162.10771949 320.72239987 -164.44549049 323.84979604 -167 327 C-167.94142233 328.68806763 -168.88257115 330.37629102 -169.8203125 332.06640625 C-171.65038546 335.06602915 -173.83973565 337.75113326 -176.02734375 340.49609375 C-178.16197351 343.2055941 -180.20451178 345.97267341 -182.25 348.75 C-186.13289118 353.96742546 -190.25084002 358.92833326 -194.54589844 363.81152344 C-197.17895736 366.51031833 -197.17895736 366.51031833 -198 370 C-198.66 370 -199.32 370 -200 370 C-201.81067374 371.71331989 -201.81067374 371.71331989 -203.625 373.875 C-204.25664063 374.59429688 -204.88828125 375.31359375 -205.5390625 376.0546875 C-207.20017123 377.86106933 -207.20017123 377.86106933 -207 380 C-207.66 380 -208.32 380 -209 380 C-210.53457367 381.51719983 -210.53457367 381.51719983 -212.125 383.5 C-221.83139535 394.91569767 -221.83139535 394.91569767 -226 397 C-226 397.66 -226 398.32 -226 399 C-227.32 399.66 -228.64 400.32 -230 401 C-230 401.66 -230 402.32 -230 403 C-230.55171875 403.2475 -231.1034375 403.495 -231.671875 403.75 C-234.45136707 405.24234474 -236.7814707 407.03672523 -239.25 409 C-240.14203125 409.70125 -241.0340625 410.4025 -241.953125 411.125 C-242.62859375 411.74375 -243.3040625 412.3625 -244 413 C-244 413.66 -244 414.32 -244 415 C-244.5465625 415.24234375 -245.093125 415.4846875 -245.65625 415.734375 C-248.54336605 417.29341767 -250.92982458 419.2073869 -253.5 421.25 C-268.42636903 432.88146969 -284.03470141 443.17531914 -300.46875 452.54638672 C-302.70398028 453.83000565 -304.91691808 455.14313448 -307.125 456.47265625 C-320.82511044 464.57545186 -335.56669073 470.6310711 -350.12840271 476.98860168 C-357.02402427 480.00132178 -363.88714636 483.08333115 -370.74539185 486.17996216 C-380.00971981 490.36083576 -389.30459106 494.43663855 -398.69018555 498.3371582 C-404.35362652 500.69999295 -409.90706816 503.25509561 -415.453125 505.8828125 C-423.01903613 509.43671494 -430.67461776 512.80014189 -438.30810547 516.20581055 C-441.87441799 517.79869908 -445.43780618 519.39792389 -449 521 C-450.79655029 521.8036499 -450.79655029 521.8036499 -452.62939453 522.62353516 C-453.77778809 523.14351074 -454.92618164 523.66348633 -456.109375 524.19921875 C-457.13256836 524.66030029 -458.15576172 525.12138184 -459.20996094 525.59643555 C-463.20681916 527.60710565 -466.55293638 530.18121891 -470 533 C-470.99 533.66 -471.98 534.32 -473 535 C-473 535.66 -473 536.32 -473 537 C-473.66 537 -474.32 537 -475 537 C-484.654612 549.29417341 -487.90605908 562.64553449 -487 578 C-485.08057333 589.92584952 -480.3148151 599.21725158 -472 608 C-471.34 608 -470.68 608 -470 608 C-470 608.66 -470 609.32 -470 610 C-463.46745889 614.99744863 -456.16925282 618.52170774 -448.625 621.6875 C-446.43030322 622.6312179 -444.23635745 623.57668334 -442.04296875 624.5234375 C-441.13355278 624.91421227 -441.13355278 624.91421227 -440.20576477 625.31288147 C-431.72907543 628.9620084 -423.30996548 632.74189603 -414.88131714 636.50024414 C-401.42553385 642.4983852 -387.96161671 648.47647202 -374.45617676 654.36203003 C-308.63979387 683.05195688 -308.63979387 683.05195688 -291.31640625 694.50390625 C-289.191235 695.87648734 -287.05065858 697.07444381 -284.8125 698.25 C-266.90043849 708.00854247 -250.66010199 721.67032712 -235.125 734.75 C-234.577229 735.21003418 -234.02945801 735.67006836 -233.46508789 736.14404297 C-231.12336983 738.12769243 -228.87983355 740.12390866 -226.7421875 742.328125 C-225.1619309 744.23079904 -225.1619309 744.23079904 -223 744 C-223 744.66 -223 745.32 -223 746 C-221.51638306 747.50049936 -221.51638306 747.50049936 -219.5625 749.0625 C-213.80184463 753.9636615 -208.27897091 759.13667757 -203.5625 765.0625 C-203.046875 765.701875 -202.53125 766.34125 -202 767 C-201.34 767 -200.68 767 -200 767 C-199.731875 767.5775 -199.46375 768.155 -199.1875 768.75 C-197.97070811 771.05550043 -196.69666121 773.02056192 -195 775 C-194.34 775 -193.68 775 -193 775 C-192.6596875 775.78117187 -192.6596875 775.78117187 -192.3125 776.578125 C-190.52480639 779.87684535 -188.28109676 782.78457421 -186 785.75 C-185.54882812 786.35199219 -185.09765625 786.95398437 -184.6328125 787.57421875 C-183.47177498 789.08906356 -182.24072061 790.54969821 -181 792 C-180.34 792 -179.68 792 -179 792 C-178.7525 792.70511719 -178.505 793.41023438 -178.25 794.13671875 C-176.83896341 797.36887443 -175.0749274 799.96328902 -173 802.8125 C-172.29875 803.78832031 -171.5975 804.76414062 -170.875 805.76953125 C-169.946875 806.87361328 -169.946875 806.87361328 -169 808 C-168.34 808 -167.68 808 -167 808 C-166.88978516 808.78310547 -166.88978516 808.78310547 -166.77734375 809.58203125 C-165.66975763 813.02723632 -163.61314304 815.74724541 -161.5625 818.6875 C-148.79541255 837.42919624 -138.52241529 857.46042721 -129 878 C-128.49210937 879.08925781 -127.98421875 880.17851563 -127.4609375 881.30078125 C-125.57758999 885.38521895 -123.7982789 889.48440468 -122.13671875 893.6640625 C-120.04683449 898.91572843 -117.85510981 904.11904072 -115.625 909.3125 C-115.03247437 910.69477783 -115.03247437 910.69477783 -114.42797852 912.10498047 C-111.89202437 917.99583909 -109.24989012 923.82571913 -106.52734375 929.6328125 C-104.22626405 934.70578104 -102.10422935 939.85161341 -99.96069336 944.99267578 C-97.62355895 950.57703845 -95.14304145 956.07414301 -92.5625 961.55078125 C-90.97315956 965.05925026 -89.50041859 968.60129215 -88.0378418 972.16381836 C-84.89404728 979.80846759 -81.73412035 987.17113614 -77 994 C-76.49082031 994.74378906 -75.98164062 995.48757813 -75.45703125 996.25390625 C-74.97621094 996.83011719 -74.49539063 997.40632813 -74 998 C-73.34 998 -72.68 998 -72 998 C-71.814375 998.556875 -71.62875 999.11375 -71.4375 999.6875 C-66.90909515 1006.97232519 -56.54851079 1010.56317066 -48.6015625 1012.62109375 C-33.96283357 1014.75316088 -21.33752538 1012.10379141 -8.73046875 1004.3671875 C-7.87388672 1003.69042969 -7.87388672 1003.69042969 -7 1003 C-7 1002.34 -7 1001.68 -7 1001 C-6.360625 1000.731875 -5.72125 1000.46375 -5.0625 1000.1875 C-2.66868314 999.11332248 -2.66868314 999.11332248 -2 996 C-1.34 996 -0.68 996 0 996 C5.79180562 988.65879415 9.13398423 979.25487949 12.8125 970.73681641 C14.12220992 967.71834434 15.4501385 964.70831269 16.78125 961.69921875 C17.75003023 959.50782586 18.71878044 957.31641971 19.6875 955.125 C20.13891357 954.10398193 20.59032715 953.08296387 21.05541992 952.03100586 C23.26304063 947.01780813 25.42855332 941.99274213 27.51953125 936.9296875 C29.48932404 932.17364156 31.57135007 927.48234352 33.71875 922.80419922 C36.02980101 917.74613293 38.26071426 912.6526411 40.5 907.5625 C41.19029297 905.99918945 41.19029297 905.99918945 41.89453125 904.40429688 C44.62755417 898.19533071 47.28818937 891.96178394 49.8737793 885.68994141 C51.80580853 881.07535263 53.89587241 876.53809139 56 872 C56.2980957 871.34805664 56.59619141 870.69611328 56.90332031 870.02441406 C60.46339769 862.24051606 64.0095044 854.58453219 68.5703125 847.32421875 C70.15582831 844.74667256 71.57794238 842.10846315 73 839.4375 C75.28104093 835.20384025 77.759094 831.21011369 80.5078125 827.265625 C81.66975435 825.5014201 82.73938026 823.67629716 83.76953125 821.83203125 C86.40799692 817.16675554 89.48139726 812.81812118 92.5625 808.4375 C93.17440186 807.56359619 93.78630371 806.68969238 94.41674805 805.78930664 C98.65876366 799.77799429 103.05485951 793.92297778 107.71118164 788.22631836 C109.67853795 785.80162975 111.00140385 783.99578845 112 781 C112.66 781 113.32 781 114 781 C115.53851766 779.28048026 117.00731759 777.49812503 118.4375 775.6875 C122.7848186 770.20858941 122.7848186 770.20858941 124.78515625 768.26953125 C126.23045802 767.05202499 126.23045802 767.05202499 126 765 C126.99 764.67 127.98 764.34 129 764 C129 763.34 129 762.68 129 762 C129.66 762 130.32 762 131 762 C131 761.34 131 760.68 131 760 C131.66 760 132.32 760 133 760 C134.634689 758.34551316 134.634689 758.34551316 136.3125 756.25 C138.98762235 753.08238651 141.73925686 750.56907035 145 748 C145 747.34 145 746.68 145 746 C145.66 746 146.32 746 147 746 C147 745.34 147 744.68 147 744 C147.53625 743.773125 148.0725 743.54625 148.625 743.3125 C151.82460161 741.54429911 154.29037223 739.46329797 157 737 C157 736.34 157 735.68 157 735 C157.88461914 734.59056152 157.88461914 734.59056152 158.78710938 734.17285156 C160.94023597 733.03167546 162.56709623 731.82235291 164.40625 730.234375 C165.05674316 729.68136719 165.70723633 729.12835937 166.37744141 728.55859375 C167.07788574 727.96175781 167.77833008 727.36492188 168.5 726.75 C202.44593235 698.40180839 241.97883101 679.34998806 282.14450073 661.59106445 C289.32642605 658.41510044 296.50146313 655.22366201 303.67684937 652.03295898 C307.54476171 650.31314162 311.41302286 648.59410916 315.28125 646.875 C316.78125166 646.20833707 318.2812517 645.54167048 319.78125 644.875 C331.03125 639.875 331.03125 639.875 334.30566406 638.42016602 C336.42265797 637.47897421 338.5392004 636.53676621 340.65527344 635.59350586 C346.41415133 633.02825864 352.1799333 630.48060025 357.95703125 627.95669556 C361.24518129 626.51890343 364.5305433 625.0748026 367.81567383 623.63012695 C369.42035305 622.92635981 371.02628626 622.22544403 372.63354492 621.52758789 C374.88920859 620.54788389 377.14024204 619.55816837 379.390625 618.56640625 C380.05616394 618.28036026 380.72170288 617.99431427 381.40740967 617.69960022 C386.05873357 615.63339158 390.00660709 613.17169784 394 610 C394 609.34 394 608.68 394 608 C394.639375 607.731875 395.27875 607.46375 395.9375 607.1875 C398.33131686 606.11332248 398.33131686 606.11332248 399 603 C399.66 603 400.32 603 401 603 C401 602.01 401 601.02 401 600 C401.66 600 402.32 600 403 600 C410.59517753 586.16056584 413.81847377 571.85542804 409.3515625 556.4206543 C407.74705736 551.32694036 406.13398142 546.39429566 403 542 C402.34 542 401.68 542 401 542 C400.731875 541.236875 400.46375 540.47375 400.1875 539.6875 C399.04865495 537.11011382 398.18583329 535.73045136 396 534 C395.34 534 394.68 534 394 534 C394 533.34 394 532.68 394 532 C386.71837964 526.29421856 378.28902426 522.70833145 369.8125 519.1875 C367.14723447 518.06055073 364.48562647 516.92508772 361.82421875 515.7890625 C361.12264648 515.49042801 360.42107422 515.19179352 359.69824219 514.8841095 C350.78166625 511.07540529 341.95784958 507.06046794 333.125 503.0625 C321.65569913 497.87706917 310.17209755 492.7331318 298.62728882 487.71789551 C223.34842361 455.0070062 223.34842361 455.0070062 191 431 C189.08377769 429.62438081 187.16713458 428.24934752 185.25 426.875 C180.6938673 423.56758515 176.32354903 420.0691928 171.99609375 416.46875 C170.14455415 414.80244626 170.14455415 414.80244626 168 415 C168 414.34 168 413.68 168 413 C164.94441577 409.97482091 164.94441577 409.97482091 161 409 C161 408.34 161 407.68 161 407 C160.34 407 159.68 407 159 407 C159 406.34 159 405.68 159 405 C157.34839219 403.32919719 157.34839219 403.32919719 155.25 401.625 C152.93096298 399.66242273 150.74780716 397.7411705 148.625 395.5625 C147.13544499 393.76896376 147.13544499 393.76896376 145 394 C145 393.34 145 392.68 145 392 C143.01739574 390.31267723 141.0167658 388.64633943 139 387 C138.67 386.34 138.34 385.68 138 385 C137.34 385 136.68 385 136 385 C135.67 384.01 135.34 383.02 135 382 C134.34 382 133.68 382 133 382 C133 381.34 133 380.68 133 380 C132.34 380 131.68 380 131 380 C130.773125 379.45214844 130.54625 378.90429688 130.3125 378.33984375 C128.60458672 375.29508168 126.41135792 373.08689032 124 370.5625 C118.20212838 364.37269989 113.04381151 357.81334094 108 351 C107.50870605 350.3390332 107.01741211 349.67806641 106.51123047 348.99707031 C97.28375846 336.56751692 97.28375846 336.56751692 96 334 C95.34 334 94.68 334 94 334 C93.67 332.68 93.34 331.36 93 330 C92.34 330 91.68 330 91 330 C90.88011719 329.40316406 90.76023437 328.80632812 90.63671875 328.19140625 C89.81953361 325.37888561 88.17723709 323.42869322 86.44921875 321.1015625 C84.21747682 317.86523592 82.44195908 314.40679828 80.59375 310.94140625 C79.00123888 308.00228646 77.32824685 305.12616456 75.625 302.25 C69.54058895 291.85411886 63.99364436 281.40194183 59.3671875 270.2734375 C58.11537957 267.27625165 56.79796665 264.32408609 55.4375 261.375 C52.05561988 253.99339628 48.9759139 246.49082362 46 238.9375 C44.60757192 235.42274202 43.0928326 231.99097506 41.5 228.5625 C39.82004979 224.92090061 38.33411093 221.28177414 37 217.5 C35.36106082 212.85852425 33.41297165 208.44569583 31.33984375 203.984375 C29.58505099 200.07574041 28.01716198 196.10153789 26.4440918 192.11694336 C23.38738608 184.40221628 20.13312663 176.77142761 16.89892578 169.12988281 C15.71315265 166.32035408 14.543084 163.50442283 13.375 160.6875 C12.98828125 159.76582031 12.6015625 158.84414063 12.203125 157.89453125 C11.32166059 155.77386524 10.45982541 153.64501149 9.609375 151.51171875 C6.59064072 144.11581976 3.37794535 137.01553681 -2 131 C-2.66 131 -3.32 131 -4 131 C-4.33 130.01 -4.66 129.02 -5 128 C-24.39267372 112.83077609 -47.69649105 111.97823967 -68 126 Z " fill="#30BFE6" transform="translate(1044,458)"/>
</svg>
