<?xml version="1.0" encoding="UTF-8"?>
<svg version="1.1" xmlns="http://www.w3.org/2000/svg" width="500" height="500">
<path d="M0 0 C9.49777275 4.25382872 13.09839017 13.129564 16.73184204 22.2355957 C17.54222288 24.26581231 18.36886097 26.28872597 19.19995117 28.31054688 C20.37729431 31.17726241 21.54896423 34.04619095 22.71630859 36.91699219 C25.41508705 43.54174919 28.17112598 50.1422109 30.94946289 56.73394775 C31.80674552 58.77427334 32.65467258 60.81829822 33.50195312 62.86279297 C44.88078617 90.06570986 62.15283961 116.85015501 85.5234375 135.34375 C86.0376123 135.75915039 86.55178711 136.17455078 87.08154297 136.60253906 C104.71957157 150.76216147 124.41151667 160.5989512 145.0859375 169.53125 C146.98941376 170.36283109 148.89240952 171.1955129 150.79492188 172.02929688 C154.5348723 173.66687673 158.27510846 175.30379496 162.01611328 176.93896484 C162.92290833 177.33549255 163.82970337 177.73202026 164.76397705 178.14056396 C166.62569865 178.95231592 168.48881328 179.76087946 170.35321045 180.56646729 C173.08979005 181.75008886 175.8206491 182.94612724 178.55078125 184.14453125 C179.36785049 184.49404343 180.18491974 184.8435556 181.02674866 185.20365906 C187.75563493 188.17947846 193.3112479 191.70905262 196.79980469 198.40722656 C198.13161033 201.97128944 198.2033138 205.44739642 198.1484375 209.21875 C198.1386084 210.0137793 198.1287793 210.80880859 198.11865234 211.62792969 C197.8502877 218.33566964 196.43799364 222.61470619 191.5234375 227.34375 C183.24875115 233.51973566 173.16917021 237.20567151 163.76168823 241.2878418 C160.85876699 242.54847749 157.96019549 243.81864363 155.06274414 245.09179688 C151.25612774 246.76431485 147.44876296 248.43509082 143.64013672 250.10302734 C142.76347351 250.48698669 141.8868103 250.87094604 140.98358154 251.26654053 C139.45296545 251.93674281 137.92226055 252.60674233 136.39141846 253.27642822 C115.70419467 262.33286567 97.61881335 272.50198409 80.5234375 287.34375 C79.98041992 287.81232422 79.43740234 288.28089844 78.87792969 288.76367188 C48.93477396 314.76346305 33.64360375 350.24442053 18.71484375 386.046875 C18.31354248 387.00464844 17.91224121 387.96242188 17.4987793 388.94921875 C16.79973194 390.62928995 16.1111404 392.3137797 15.43676758 394.00390625 C12.4279386 401.28953083 8.08614549 408.4961412 1.0625 412.49609375 C-5.14679918 414.5690444 -12.46145272 414.4525539 -18.75390625 412.71484375 C-27.56835267 408.25765202 -32.03859004 398.8671438 -35.6015625 390.21875 C-36.05966309 389.14560547 -36.51776367 388.07246094 -36.98974609 386.96679688 C-38.49806033 383.43103711 -39.98705121 379.88746706 -41.4765625 376.34375 C-53.42562429 348.13996904 -65.51780504 322.11490555 -86.4765625 299.34375 C-86.97881348 298.7962207 -87.48106445 298.24869141 -87.99853516 297.68457031 C-114.0983739 269.5924411 -148.78421132 255.53811899 -183.28662109 240.57446289 C-207.76125264 229.95073423 -207.76125264 229.95073423 -211.4765625 225.34375 C-212.2809375 224.3846875 -212.2809375 224.3846875 -213.1015625 223.40625 C-217.46400978 216.86257909 -217.1582537 209.96315922 -216.4765625 202.34375 C-214.66711097 195.46350017 -209.63377922 190.8107123 -203.63897705 187.2532959 C-201.71366469 186.28105397 -199.77029624 185.38599123 -197.796875 184.515625 C-197.06671173 184.18278503 -196.33654846 183.84994507 -195.58425903 183.50701904 C-193.22169541 182.43687435 -190.85100538 181.38725295 -188.4765625 180.34375 C-187.68020386 179.99320557 -186.88384521 179.64266113 -186.06335449 179.28149414 C-181.90479497 177.45682219 -177.73912497 175.64902153 -173.56958008 173.84960938 C-140.47644837 159.85526257 -140.47644837 159.85526257 -110.4765625 140.34375 C-109.94450195 139.92303223 -109.41244141 139.50231445 -108.86425781 139.06884766 C-90.87445216 124.72766346 -76.21161066 108.14220637 -64.4765625 88.34375 C-64.1062793 87.71984375 -63.73599609 87.0959375 -63.35449219 86.453125 C-52.39977616 67.61440441 -44.62537239 46.73624329 -36.796875 26.4453125 C-28.94982726 6.21510444 -28.94982726 6.21510444 -19.66796875 0.6640625 C-13.55926456 -1.86316151 -6.36644906 -1.68700858 0 0 Z " fill="#30BFE6" transform="translate(259.4765625,30.65625)"/>
</svg>
